C:\Users\r0593348\3dpredictsim\Results\batch_windlass\Pog_s1_tmt_bCst_d00_k1000_WL40_ig24_pas_GRF.mot
nRows=17
nColumns=19

name C:\Users\r0593348\3dpredictsim\Results\batch_windlass\Pog_s1_tmt_bCst_d00_k1000_WL40_ig24_pas_GRF.mot
datacolumns 19
datarows 17
range 0.0000000000 0.1792748532
endheader
time 	ground_force_vx	ground_force_vy	ground_force_vz	ground_force_px	ground_force_py	ground_force_pz	1_ground_force_vx	1_ground_force_vy	1_ground_force_vz	1_ground_force_px	1_ground_force_py	1_ground_force_pz	ground_torque_x	ground_torque_y	ground_torque_z	1_ground_torque_x	1_ground_torque_y	1_ground_torque_z
        0.0000000000	      -75.8511014147	       64.1652771824	       30.5706194729	        0.1675913553	        0.0000000000	        0.0402222315	       64.7324681725	      389.2952974869	       -3.7603455724	       -0.3191838428	        0.0000000000	       -0.0277793659	        0.0000000000	        0.0000000000	        0.0000000000	        0.0000000000	        0.0000000000	        0.0000000000	
        0.0112046783	     -124.7661445169	      149.0262573525	       81.1103065093	        0.1746128564	        0.0000000000	        0.0380169656	       34.0429200331	      286.9854018363	      -13.0842180431	       -0.3115461704	        0.0000000000	       -0.0242851313	        0.0000000000	        0.0000000000	        0.0000000000	        0.0000000000	        0.0000000000	        0.0000000000	
        0.0224093566	      -62.5429714344	      315.5097561565	       32.0234832850	        0.1800080376	        0.0000000000	        0.0355000396	       10.3321067136	      192.1167486639	      -14.8610768099	       -0.2995242998	        0.0000000000	       -0.0177343666	        0.0000000000	        0.0000000000	        0.0000000000	        0.0000000000	        0.0000000000	        0.0000000000	
        0.0336140350	      -48.0729370675	      514.7348427644	        2.1478469864	        0.1844633715	        0.0000000000	        0.0357162920	       -2.8885468251	      146.0650657807	      -12.7184381820	       -0.2933018957	        0.0000000000	       -0.0136336519	        0.0000000000	        0.0000000000	        0.0000000000	        0.0000000000	        0.0000000000	        0.0000000000	
        0.0448187133	      -80.4039555736	      737.5392808800	       -9.9194952831	        0.1929995842	        0.0000000000	        0.0381474781	       -5.8770798967	      108.5195926370	       -9.1139018214	       -0.2930197894	        0.0000000000	       -0.0134729108	        0.0000000000	        0.0000000000	        0.0000000000	        0.0000000000	        0.0000000000	        0.0000000000	
        0.0560233916	     -106.5874564095	      862.7147342713	      -15.8461759126	        0.1994510333	        0.0000000000	        0.0399591838	      -10.1060374010	       66.5651530601	       -6.3085206512	       -0.2928540628	        0.0000000000	       -0.0133330055	        0.0000000000	        0.0000000000	        0.0000000000	        0.0000000000	        0.0000000000	        0.0000000000	
        0.0672280699	     -115.8731076126	      900.2884831807	      -19.9832504821	        0.2044113676	        0.0000000000	        0.0411960997	      -15.9122910498	       24.7095763562	       -1.9939940814	       -0.2946398783	        0.0000000000	       -0.0129353341	        0.0000000000	        0.0000000000	        0.0000000000	        0.0000000000	        0.0000000000	        0.0000000000	
        0.0784327483	     -116.4133099099	      899.5239704916	      -20.0932090575	        0.2084156786	        0.0000000000	        0.0420618857	        0.0006694245	       -0.0005671271	       -0.0000778872	        0.0000000000	        0.0000000000	        0.0000000000	        0.0000000000	        0.0000000000	        0.0000000000	        0.0000000000	        0.0000000000	        0.0000000000	
        0.0896374266	     -105.5607571847	      870.2930370820	      -18.2597927647	        0.2119718309	        0.0000000000	        0.0424622137	        0.0000789395	       -0.0000565970	       -0.0000100188	        0.0000000000	        0.0000000000	        0.0000000000	        0.0000000000	        0.0000000000	        0.0000000000	        0.0000000000	        0.0000000000	        0.0000000000	
        0.1008421049	      -92.1053445318	      821.7758572676	      -16.8069769028	        0.2153880461	        0.0000000000	        0.0425775585	        0.0016895074	       -0.0011011073	       -0.0001954062	        0.0000000000	        0.0000000000	        0.0000000000	        0.0000000000	        0.0000000000	        0.0000000000	        0.0000000000	        0.0000000000	        0.0000000000	
        0.1120467832	      -79.7322680183	      774.4602071793	      -16.7084310920	        0.2191956010	        0.0000000000	        0.0425996567	        0.0279782234	       -0.0168607096	       -0.0030683258	        0.0000000000	        0.0000000000	        0.0000000000	        0.0000000000	        0.0000000000	        0.0000000000	        0.0000000000	        0.0000000000	        0.0000000000	
        0.1232514616	      -68.4342126200	      730.5395445931	      -17.0893256109	        0.2230117953	        0.0000000000	        0.0425676715	       -0.1756249413	        0.1004025588	        0.0180268786	        0.0000000000	        0.0000000000	        0.0000000000	        0.0000000000	        0.0000000000	        0.0000000000	        0.0000000000	        0.0000000000	        0.0000000000	
        0.1344561399	      -58.3236077934	      691.4967517630	      -17.6926421079	        0.2266344179	        0.0000000000	        0.0425466270	       -0.1307532663	        0.0714221564	        0.0127574967	        0.0000000000	        0.0000000000	        0.0000000000	        0.0000000000	        0.0000000000	        0.0000000000	        0.0000000000	        0.0000000000	        0.0000000000	
        0.1456608182	      -48.9149378928	      659.4688174385	      -18.4390466640	        0.2300437078	        0.0000000000	        0.0425694316	       -0.0820603190	        0.0427188842	        0.0078507864	        0.0000000000	        0.0000000000	        0.0000000000	        0.0000000000	        0.0000000000	        0.0000000000	        0.0000000000	        0.0000000000	        0.0000000000	
        0.1568654965	      -40.3018299122	      633.9089999950	      -19.1991309205	        0.2333527568	        0.0000000000	        0.0426374975	       -0.0595173850	        0.0294966949	        0.0057123748	        0.0000000000	        0.0000000000	        0.0000000000	        0.0000000000	        0.0000000000	        0.0000000000	        0.0000000000	        0.0000000000	        0.0000000000	
        0.1680701749	      -32.7025502437	      613.6224976302	      -19.8609640341	        0.2366961497	        0.0000000000	        0.0427382193	       -0.0531516612	        0.0251412366	        0.0051700938	        0.0000000000	        0.0000000000	        0.0000000000	        0.0000000000	        0.0000000000	        0.0000000000	        0.0000000000	        0.0000000000	        0.0000000000	
        0.1792748532	      -26.7320753323	      598.0646236355	      -20.4018432338	        0.2401683398	        0.0000000000	        0.0428522201	       -0.0585453287	        0.0265703250	        0.0057765698	        0.0000000000	        0.0000000000	        0.0000000000	        0.0000000000	        0.0000000000	        0.0000000000	        0.0000000000	        0.0000000000	        0.0000000000	
